#N canvas 1093 500 450 300 10;
#X obj 22 35 inlet~;
#X obj 23 168 lop~ 200;
#X obj 23 275 outlet;
#X msg 23 242 1 \$1;
#X msg 108 243 2 \$1;
#X obj 108 169 bp~ 300 10;
#X obj 198 168 bp~ 500 10;
#X msg 198 242 3 \$1;
#X obj 295 166 bp~ 800 10;
#X msg 295 240 4 \$1;
#X obj 373 164 hip~ 1000;
#X msg 373 238 5 \$1;
#X obj 23 212 dbtorms;
#X obj 108 213 dbtorms;
#X obj 198 212 dbtorms;
#X obj 295 210 dbtorms;
#X obj 373 208 dbtorms;
#X obj 206 42 block~ 4096 2 1;
#X obj 23 190 env~ 4096;
#X obj 108 191 env~ 4096;
#X obj 198 190 env~ 4096;
#X obj 295 188 env~ 4096;
#X obj 373 186 env~ 4096;
#X connect 0 0 1 0;
#X connect 0 0 5 0;
#X connect 0 0 6 0;
#X connect 0 0 8 0;
#X connect 0 0 10 0;
#X connect 1 0 18 0;
#X connect 3 0 2 0;
#X connect 4 0 2 0;
#X connect 5 0 19 0;
#X connect 6 0 20 0;
#X connect 7 0 2 0;
#X connect 8 0 21 0;
#X connect 9 0 2 0;
#X connect 10 0 22 0;
#X connect 11 0 2 0;
#X connect 12 0 3 0;
#X connect 13 0 4 0;
#X connect 14 0 7 0;
#X connect 15 0 9 0;
#X connect 16 0 11 0;
#X connect 18 0 12 0;
#X connect 19 0 13 0;
#X connect 20 0 14 0;
#X connect 21 0 15 0;
#X connect 22 0 16 0;
