#N canvas 538 168 660 734 10;
#X obj 63 282 qlist;
#X obj 188 417 list split 1;
#X obj 175 562 list split;
#X obj 276 480 list length;
#X obj 227 448 t a b a;
#X obj 205 604 list split 1;
#X msg 261 211 next;
#X obj 287 244 until;
#X msg 287 266 next 1;
#X msg 340 212 rewind;
#X obj 305 219 + 1;
#X obj 188 348 t b a;
#X obj 80 387 del 500;
#X obj 80 409 f;
#X msg 226 139 0;
#X obj 279 64 route start stop;
#X obj 279 86 t b b;
#X msg 313 123 1;
#X obj 226 161 spigot;
#X obj 344 90 t b b;
#X msg 344 112 0;
#X obj 96 622 outlet;
#X obj 242 522 rand;
#X obj 57 47 inlet;
#X obj 279 23 inlet;
#X obj 536 18 inlet;
#X obj 598 20 inlet;
#X obj 273 189 t b f b b;
#X obj 425 623 outlet;
#X connect 1 0 21 0;
#X connect 1 1 4 0;
#X connect 2 1 5 0;
#X connect 3 0 22 1;
#X connect 4 0 2 0;
#X connect 4 1 22 0;
#X connect 4 2 3 0;
#X connect 5 0 13 1;
#X connect 6 0 0 0;
#X connect 7 0 8 0;
#X connect 8 0 0 0;
#X connect 9 0 0 0;
#X connect 10 0 7 0;
#X connect 11 0 12 0;
#X connect 11 1 1 0;
#X connect 12 0 13 0;
#X connect 13 0 18 0;
#X connect 14 0 18 0;
#X connect 15 0 16 0;
#X connect 15 1 19 0;
#X connect 16 0 14 0;
#X connect 16 1 17 0;
#X connect 17 0 18 1;
#X connect 18 0 27 0;
#X connect 19 0 20 0;
#X connect 20 0 18 1;
#X connect 22 0 2 1;
#X connect 23 0 0 0;
#X connect 24 0 15 0;
#X connect 25 0 11 0;
#X connect 26 0 12 1;
#X connect 27 0 6 0;
#X connect 27 1 10 0;
#X connect 27 2 9 0;
#X connect 27 3 28 0;
