#N canvas 915 464 450 300 10;
#X obj 45 30 inlet;
#X obj 194 30 inlet;
#X obj 45 207 random;
#X obj 45 229 outlet;
#X obj 109 31 r rand-seed;
#X msg 109 133 seed \$1;
#X obj 196 65 loadbang;
#X obj 196 87 \$1;
#X obj 109 67 spigot 1;
#X obj 109 89 t f f b;
#X msg 206 125 0;
#X obj 214 163 + 99961;
#X obj 214 185 s rand-seed;
#X connect 0 0 2 0;
#X connect 1 0 2 1;
#X connect 2 0 3 0;
#X connect 4 0 8 0;
#X connect 5 0 2 0;
#X connect 6 0 7 0;
#X connect 7 0 2 1;
#X connect 8 0 9 0;
#X connect 9 0 5 0;
#X connect 9 1 11 0;
#X connect 9 2 10 0;
#X connect 10 0 8 1;
#X connect 11 0 12 0;
