#N canvas 649 177 725 452 10;
#X obj 82 95 inlet~;
#X obj 81 396 outlet~;
#X obj 169 397 outlet~;
#X obj 356 36 inlet;
#X obj 114 289 -;
#X msg 114 263 1 \$1;
#X obj 168 366 *~ 0.5;
#X obj 81 366 *~ 0.5;
#X obj 131 94 loadbang;
#X msg 158 205 0;
#X obj 114 315 *;
#X obj 114 339 sin;
#X obj 201 282 *;
#X obj 201 305 sin;
#X obj 158 233 expr acos($f1);
#X obj 263 36 inlet;
#X obj 263 58 osc~;
#X obj 263 80 *~ 0.5;
#X obj 264 123 +~ 0.5;
#X obj 263 102 *~ 0;
#X obj 263 146 snapshot~;
#X obj 176 148 metro 1;
#X obj 131 119 t b b;
#X obj 356 58 / 2;
#X connect 0 0 6 0;
#X connect 0 0 7 0;
#X connect 3 0 23 0;
#X connect 4 0 10 0;
#X connect 5 0 4 0;
#X connect 6 0 2 0;
#X connect 7 0 1 0;
#X connect 8 0 22 0;
#X connect 9 0 14 0;
#X connect 10 0 11 0;
#X connect 11 0 7 1;
#X connect 12 0 13 0;
#X connect 13 0 6 1;
#X connect 14 0 10 1;
#X connect 14 0 12 1;
#X connect 15 0 16 0;
#X connect 16 0 17 0;
#X connect 17 0 19 0;
#X connect 18 0 20 0;
#X connect 19 0 18 0;
#X connect 20 0 12 0;
#X connect 20 0 5 0;
#X connect 21 0 20 0;
#X connect 22 0 21 0;
#X connect 22 1 9 0;
#X connect 23 0 19 1;
#X coords 0 452 1 451 193 47 0;
