#N canvas 18 584 450 429 10;
#X obj 48 54 r state;
#X obj 198 61 s bpm;
#X msg 199 24 160;
#X msg 257 27 120;
#X msg 305 33 60;
#X obj 296 203 * 307;
#X obj 296 225 +;
#X obj 252 248 +;
#X obj 252 226 * 2099;
#X obj 195 272 +;
#X obj 195 243 * 6217;
#X obj 195 294 s rand-seed;
#X obj 256 163 time ------;
#X obj 273 102 bng 15 250 50 0 empty empty empty 17 7 0 10 -262144
-1 -1;
#X obj 273 122 s load-samples;
#X obj 36 114 r analysed-r;
#X obj 35 291 r analysed-l;
#X obj 48 76 print state;
#X obj 36 136 route 1 2 3 4 5;
#X floatatom 4 179 5 0 0 0 - - -, f 5;
#X floatatom 56 179 5 0 0 0 - - -, f 5;
#X floatatom 102 178 5 0 0 0 - - -, f 5;
#X floatatom 152 179 5 0 0 0 - - -, f 5;
#X floatatom 194 179 5 0 0 0 - - -, f 5;
#X obj 35 319 route 1 2 3 4 5;
#X floatatom 3 362 5 0 0 0 - - -, f 5;
#X floatatom 55 362 5 0 0 0 - - -, f 5;
#X floatatom 101 361 5 0 0 0 - - -, f 5;
#X floatatom 151 362 5 0 0 0 - - -, f 5;
#X floatatom 193 362 5 0 0 0 - - -, f 5;
#X connect 0 0 17 0;
#X connect 2 0 1 0;
#X connect 3 0 1 0;
#X connect 4 0 1 0;
#X connect 5 0 6 0;
#X connect 6 0 7 1;
#X connect 7 0 9 1;
#X connect 8 0 7 0;
#X connect 9 0 11 0;
#X connect 10 0 9 0;
#X connect 12 0 10 0;
#X connect 12 1 8 0;
#X connect 12 2 5 0;
#X connect 12 3 6 1;
#X connect 13 0 14 0;
#X connect 13 0 12 0;
#X connect 15 0 18 0;
#X connect 16 0 24 0;
#X connect 18 0 19 0;
#X connect 18 1 20 0;
#X connect 18 2 21 0;
#X connect 18 3 22 0;
#X connect 18 4 23 0;
#X connect 24 0 25 0;
#X connect 24 1 26 0;
#X connect 24 2 27 0;
#X connect 24 3 28 0;
#X connect 24 4 29 0;
