#N canvas 621 358 896 631 10;
#X obj 19 437 dac~ 1 2;
#X obj 17 11 loadbang;
#N canvas 927 155 426 677 bassdrum 0;
#X obj 42 21 inlet;
#X obj 38 287 route 0 1 2 3;
#X obj 40 140 f;
#N canvas 3 68 450 300 bd_1 0;
#X obj 132 77 inlet;
#X obj 28 239 outlet~;
#X msg 132 99 0.5 \, 0 200;
#X obj 131 126 line~;
#X obj 29 193 *~;
#X obj 32 78 osc~ 100;
#X connect 0 0 2 0;
#X connect 2 0 3 0;
#X connect 3 0 4 1;
#X connect 4 0 1 0;
#X connect 5 0 4 0;
#X restore 37 363 pd bd_1;
#N canvas 3 83 450 300 bd_2 0;
#X obj 32 14 inlet;
#X obj 86 264 outlet~;
#X obj 241 78 line~;
#X obj 87 237 *~;
#X obj 33 70 line~;
#X obj 43 154 -~ 0.5;
#X obj 117 153 *~ 2;
#X obj 42 191 vcf~ 10;
#X msg 242 51 0.7 \, 0 300;
#X obj 34 107 phasor~ 120;
#X msg 33 42 150 \, 100 200;
#X connect 0 0 8 0;
#X connect 0 0 10 0;
#X connect 2 0 3 1;
#X connect 3 0 1 0;
#X connect 4 0 6 0;
#X connect 4 0 9 0;
#X connect 5 0 7 0;
#X connect 6 0 7 1;
#X connect 7 1 3 0;
#X connect 8 0 2 0;
#X connect 9 0 5 0;
#X connect 10 0 4 0;
#X restore 130 366 pd bd_2;
#N canvas 1033 413 450 577 bd_3 0;
#X obj 141 14 inlet;
#X obj 79 328 outlet~;
#X obj 221 149 line~;
#X obj 78 234 *~;
#X obj 30 149 phasor~ 100;
#X obj 30 173 -~ 0.5;
#X obj 31 203 vcf~ 10;
#X obj 136 147 *~ 3;
#X obj 31 78 line~;
#X msg 192 58 0.8 \, 0 200;
#X msg 31 52 200 \, 80 200;
#X connect 0 0 9 0;
#X connect 0 0 10 0;
#X connect 2 0 3 1;
#X connect 3 0 1 0;
#X connect 4 0 5 0;
#X connect 5 0 6 0;
#X connect 6 0 3 0;
#X connect 6 1 3 0;
#X connect 7 0 6 1;
#X connect 8 0 4 0;
#X connect 8 0 7 0;
#X connect 9 0 2 0;
#X connect 10 0 8 0;
#X restore 202 365 pd bd_3;
#N canvas 776 216 854 764 bd_4 0;
#X obj 492 -5 inlet;
#X obj 28 146 osc~ 50;
#X obj 28 479 outlet~;
#X obj 491 44 line~;
#X obj 29 433 *~;
#X obj 119 145 osc~ 50;
#X obj 245 132 osc~ 50;
#X obj 186 146 osc~ 50;
#X obj 21 77 line~;
#X obj 115 105 *~ 1.1;
#X obj 244 101 *~ 1.4;
#X obj 184 108 *~ 1.2;
#X obj 119 167 *~ 0.5;
#X obj 191 177 *~ 0.8;
#X obj 250 185 *~ 0.2;
#X msg 492 17 0.3 \, 0 200;
#X msg 22 50 200 \, 100 200;
#X connect 0 0 15 0;
#X connect 0 0 16 0;
#X connect 1 0 4 0;
#X connect 3 0 4 1;
#X connect 4 0 2 0;
#X connect 5 0 12 0;
#X connect 6 0 14 0;
#X connect 7 0 13 0;
#X connect 8 0 1 0;
#X connect 8 0 9 0;
#X connect 8 0 10 0;
#X connect 8 0 11 0;
#X connect 9 0 5 0;
#X connect 10 0 6 0;
#X connect 11 0 7 0;
#X connect 12 0 4 0;
#X connect 13 0 4 0;
#X connect 14 0 4 0;
#X connect 15 0 3 0;
#X connect 16 0 8 0;
#X restore 283 367 pd bd_4;
#X obj 260 471 s state;
#N canvas 346 122 955 611 rhythm 0;
#X obj 45 35 inlet;
#X obj 106 188 f;
#X obj 153 190 + 1;
#X msg 243 142 0;
#X obj 59 407 outlet;
#X obj 393 72 inlet;
#X obj 319 457 s state;
#X obj 542 21 table bd-rhythm-2 8;
#X obj 537 39 table bd-rhythm-3 8;
#X obj 539 56 table bd-rhythm-4 8;
#X obj 538 75 table bd-rhythm-5 8;
#X obj 540 98 table bd-rhythm-6 8;
#X obj 538 121 table bd-rhythm-7 8;
#X obj 538 144 table bd-rhythm-8 8;
#X obj 105 218 moses 8;
#X msg 345 206 set bd-rhythm-\$1;
#X obj 541 204 table bd-rhythm-11 8;
#X obj 539 166 table bd-rhythm-9 8;
#X obj 541 183 table bd-rhythm-10 8;
#X obj 717 48 loadbang;
#X obj 542 2 table bd-rhythm-1 8;
#X obj 542 223 table bd-rhythm-0 8;
#X obj 100 294 tabread bd-rhythm-0;
#X msg 749 123 \; bd-rhythm-0 0 1 1 1 1 1 1 1 1 \; bd-rhythm-1 0 1
1 1 1 1 1 1 0 \; bd-rhythm-2 0 1 0 1 0 1 0 1 0 \; bd-rhythm-3 0 1 0
1 1 0 1 1 0 \; bd-rhythm-4 0 1 1 0 0 1 0 1 0 \; bd-rhythm-5 0 1 0 1
1 1 0 1 1 \; bd-rhythm-6 0 0 1 0 1 1 0 1 1 \; bd-rhythm-7 0 1 1 0 1
1 0 1 0 \; bd-rhythm-8 0 1 0 0 0 1 1 0 1 \; bd-rhythm-9 0 1 0 0 0 1
1 1 0 \; bd-rhythm-10 0 1 0 0 0 0 0 0 0 \; bd-rhythm-11 0 1 1 0 1 1
1 1 0\\\;;
#X msg 314 388 list bd-rhythm \$1;
#X obj 309 116 r bd-rhythm;
#X obj 371 159 utils/rand 12;
#X connect 0 0 1 0;
#X connect 1 0 2 0;
#X connect 1 0 14 0;
#X connect 2 0 1 1;
#X connect 3 0 1 0;
#X connect 5 0 26 0;
#X connect 14 0 22 0;
#X connect 14 1 3 0;
#X connect 15 0 22 0;
#X connect 19 0 23 0;
#X connect 22 0 4 0;
#X connect 24 0 6 0;
#X connect 25 0 15 0;
#X connect 26 0 24 0;
#X connect 26 0 15 0;
#X restore 69 209 pd rhythm;
#X obj 40 162 t f b;
#X obj 34 241 spigot;
#X obj 66 79 r bd-drum;
#X obj 110 133 r bd-rhythm-new;
#X obj 172 16 r bd-drum-new;
#X msg 260 447 list bd-drum \$1;
#X obj 34 638 outlet~;
#X obj 269 637 outlet~;
#X obj 37 575 *~ 0;
#X obj 175 481 r playing;
#X msg 175 525 \$1 1000;
#X obj 175 503 bits/is-bit-set 0;
#X obj 175 547 line;
#X obj 172 93 utils/rand 4;
#X connect 0 0 2 0;
#X connect 1 0 3 0;
#X connect 1 1 4 0;
#X connect 1 2 5 0;
#X connect 1 3 6 0;
#X connect 2 0 9 0;
#X connect 3 0 17 0;
#X connect 4 0 17 0;
#X connect 5 0 17 0;
#X connect 6 0 17 0;
#X connect 8 0 10 1;
#X connect 9 0 10 0;
#X connect 9 1 8 0;
#X connect 10 0 1 0;
#X connect 11 0 2 1;
#X connect 12 0 8 1;
#X connect 13 0 22 0;
#X connect 14 0 7 0;
#X connect 17 0 15 0;
#X connect 17 0 16 0;
#X connect 18 0 20 0;
#X connect 19 0 21 0;
#X connect 20 0 19 0;
#X connect 21 0 17 1;
#X connect 22 0 2 1;
#X connect 22 0 14 0;
#X restore 17 180 pd bassdrum;
#X obj 17 90 metro 500;
#X obj 179 10 r bpm;
#N canvas 3 83 450 300 bpm-to-ms 0;
#X obj 24 46 inlet;
#X obj 53 98 / 60;
#X obj 21 72 t b f;
#X msg 10 107 1000;
#X obj 14 148 /;
#X obj 15 184 outlet;
#X connect 0 0 2 0;
#X connect 1 0 4 1;
#X connect 2 0 3 0;
#X connect 2 1 1 0;
#X connect 3 0 4 0;
#X connect 4 0 5 0;
#X restore 179 39 pd bpm-to-ms;
#X obj 179 96 / 2;
#N canvas 362 183 888 697 pad 0;
#X obj 26 14 inlet;
#X obj 29 846 outlet~;
#X obj 311 -5 inlet;
#X obj 146 307 t f f;
#X obj 30 713 *~ 0;
#X obj 32 628 mtof;
#N canvas 3 63 450 300 attack 0;
#X obj 22 38 inlet;
#X obj 102 39 inlet;
#X obj 22 160 outlet;
#X obj 102 61 / 4;
#X obj 22 122 utils/rand;
#X connect 0 0 4 0;
#X connect 1 0 3 0;
#X connect 3 0 4 1;
#X connect 4 0 2 0;
#X restore 72 225 pd attack;
#N canvas 3 73 450 300 sustain 0;
#X obj 22 38 inlet;
#X obj 22 160 outlet;
#X obj 22 89 / 1000;
#X obj 22 111 moses 0.5;
#X msg 22 133 0.5;
#X obj 22 67 utils/rand 1000;
#X connect 0 0 5 0;
#X connect 2 0 3 0;
#X connect 3 0 4 0;
#X connect 3 1 1 0;
#X connect 4 0 1 0;
#X connect 5 0 2 0;
#X restore 209 215 pd sustain;
#N canvas 3 63 450 300 decay 0;
#X obj 22 38 inlet;
#X obj 102 39 inlet;
#X obj 22 160 outlet;
#X obj 102 61 / 4;
#X obj 22 122 utils/rand;
#X connect 0 0 4 0;
#X connect 1 0 3 0;
#X connect 3 0 4 1;
#X connect 4 0 2 0;
#X restore 165 239 pd decay;
#N canvas 3 78 391 322 release 0;
#X obj 22 38 inlet;
#X obj 102 39 inlet;
#X obj 22 230 outlet;
#X obj 102 61 t f f;
#X obj 22 204 +;
#X obj 102 83 * 2;
#X obj 136 85 / 2;
#X obj 22 122 utils/rand;
#X connect 0 0 7 0;
#X connect 1 0 3 0;
#X connect 3 0 5 0;
#X connect 3 1 6 0;
#X connect 4 0 2 0;
#X connect 5 0 7 1;
#X connect 6 0 4 1;
#X connect 7 0 4 0;
#X restore 303 213 pd release;
#N canvas 3 63 450 300 length 0;
#X obj 38 41 inlet;
#X obj 208 41 inlet;
#X obj 208 63 * 8;
#X obj 38 155 +;
#X obj 38 177 outlet;
#X obj 38 133 utils/rand;
#X connect 0 0 5 0;
#X connect 1 0 2 0;
#X connect 1 0 3 1;
#X connect 2 0 5 1;
#X connect 3 0 4 0;
#X connect 5 0 3 0;
#X restore 413 208 pd length;
#X obj 406 246 del;
#X obj 28 159 t b f b b b b b b;
#X msg 406 268 0;
#X obj 311 24 t f f f f;
#X obj 108 844 outlet~;
#X obj 146 285 utils/adsr;
#X obj 82 739 *~ 0;
#X obj 519 281 r playing;
#X msg 519 406 \$1 1000;
#X obj 519 303 bits/is-bit-set 3;
#X obj 519 429 line;
#X obj 598 343 sel 1 0;
#X msg 652 362 stop;
#X obj 551 612 utils/markov-melody;
#X msg 598 365 start;
#X obj 725 301 loadbang;
#X obj 28 130 + 5;
#X msg 722 338 clear \, add 0 pad-mel 32 1 3 \, add 0 pad-mel 33 0
1 2 1 \, add pad-mel 31 1 0 0 3 3 \, add pad-mel 35 2 1 0;
#X obj 693 565 r pad-mel;
#X obj 30 652 osc~;
#X obj 28 109 utils/rand 20;
#X obj 19 222 / 50;
#X connect 2 0 14 0;
#X connect 3 0 4 1;
#X connect 4 0 17 0;
#X connect 5 0 30 0;
#X connect 6 0 16 1;
#X connect 7 0 16 3;
#X connect 8 0 16 2;
#X connect 9 0 16 4;
#X connect 10 0 11 1;
#X connect 10 0 24 3;
#X connect 11 0 13 0;
#X connect 12 1 32 0;
#X connect 12 2 6 0;
#X connect 12 3 7 0;
#X connect 12 4 8 0;
#X connect 12 5 9 0;
#X connect 12 6 11 0;
#X connect 12 7 10 0;
#X connect 13 0 16 0;
#X connect 14 0 6 1;
#X connect 14 1 8 1;
#X connect 14 2 9 1;
#X connect 14 3 10 1;
#X connect 16 0 3 0;
#X connect 17 0 1 0;
#X connect 17 0 15 0;
#X connect 18 0 20 0;
#X connect 19 0 21 0;
#X connect 20 0 19 0;
#X connect 20 0 22 0;
#X connect 21 0 17 1;
#X connect 22 0 25 0;
#X connect 22 1 23 0;
#X connect 23 0 24 1;
#X connect 24 0 5 0;
#X connect 24 1 31 0;
#X connect 25 0 24 1;
#X connect 26 0 28 0;
#X connect 27 0 12 0;
#X connect 28 0 24 0;
#X connect 29 0 24 2;
#X connect 30 0 4 0;
#X connect 31 0 27 0;
#X connect 32 0 16 0;
#X restore 158 179 pd pad;
#N canvas 983 230 716 664 change 0;
#X obj 52 40 inlet;
#X obj 122 384 s bd-rhythm-new;
#X obj 12 384 s bd-drum-new;
#X obj 52 73 f;
#X obj 109 75 + 1;
#X obj 72 266 bang;
#X obj 98 240 t b f;
#X msg 259 234 0;
#X obj 248 385 s tom-on-off-new;
#N canvas 575 197 888 814 change-layers 0;
#X obj 215 5 inlet;
#X obj 107 140 f;
#X obj 125 88 r playing;
#X obj 326 33 loadbang;
#X msg 326 55 5;
#X obj 326 77 s playing;
#X obj 215 89 t b f;
#X obj 174 237 bits/flip-bit;
#X obj 107 162 pack f f;
#X obj 174 299 bits/count-bits;
#X obj 174 321 moses 2;
#X obj 174 259 t f f;
#X msg 676 441 bang;
#X obj 240 445 s playing;
#X msg 117 446 list playing \$1;
#X obj 117 468 s state;
#X obj 215 27 t b b;
#N canvas 947 200 610 708 is-ok 0;
#X obj 190 11 inlet;
#X obj 373 10 inlet;
#X obj 266 620 outlet;
#X obj 463 491 outlet;
#X msg 373 32 0;
#X obj 32 114 f;
#X obj 68 114 + 1;
#X obj 266 4 inlet;
#X obj 190 214 moses 3;
#X obj 190 33 t f b;
#X obj 190 194 spigot;
#X obj 32 136 moses 10;
#X msg 179 172 1;
#X obj 266 498 f;
#X msg 229 173 0;
#X msg 85 160 1;
#X msg 32 160 0;
#X obj 46 193 spigot;
#X msg 165 450 bang;
#X msg 463 462 bang;
#X connect 0 0 9 0;
#X connect 1 0 4 0;
#X connect 4 0 5 1;
#X connect 5 0 6 0;
#X connect 5 0 11 0;
#X connect 6 0 5 1;
#X connect 7 0 13 1;
#X connect 8 0 19 0;
#X connect 8 1 18 0;
#X connect 9 0 10 0;
#X connect 9 0 17 0;
#X connect 9 1 5 0;
#X connect 10 0 8 0;
#X connect 11 0 12 0;
#X connect 11 0 16 0;
#X connect 11 1 14 0;
#X connect 11 1 15 0;
#X connect 12 0 10 1;
#X connect 13 0 2 0;
#X connect 14 0 10 1;
#X connect 15 0 17 1;
#X connect 16 0 17 1;
#X connect 17 0 18 0;
#X connect 18 0 13 0;
#X connect 19 0 3 0;
#X restore 220 379 pd is-ok;
#X obj 215 67 utils/rand 5;
#X connect 0 0 16 0;
#X connect 1 0 8 0;
#X connect 2 0 1 1;
#X connect 3 0 4 0;
#X connect 4 0 5 0;
#X connect 6 0 1 0;
#X connect 6 1 8 1;
#X connect 7 0 11 0;
#X connect 8 0 7 0;
#X connect 9 0 10 0;
#X connect 10 0 12 0;
#X connect 10 1 17 0;
#X connect 11 0 9 0;
#X connect 11 1 17 1;
#X connect 12 0 18 0;
#X connect 14 0 15 0;
#X connect 16 0 18 0;
#X connect 16 1 17 2;
#X connect 17 0 14 0;
#X connect 17 0 13 0;
#X connect 17 1 12 0;
#X connect 18 0 6 0;
#X restore 52 190 pd change-layers;
#X obj 243 439 s break-sample-new;
#X obj 129 484 s break-pitch-new;
#X obj 52 95 moses 8;
#X obj 52 117 % 4;
#X obj 52 139 == 0;
#X obj 72 310 sel 0 1 2 3 4 5;
#X obj 52 161 sel 1;
#X obj 72 288 utils/rand 5;
#X connect 0 0 3 0;
#X connect 3 0 4 0;
#X connect 3 0 12 0;
#X connect 4 0 3 1;
#X connect 5 0 17 0;
#X connect 6 0 5 0;
#X connect 6 1 7 0;
#X connect 7 0 3 1;
#X connect 12 0 13 0;
#X connect 12 1 6 0;
#X connect 13 0 14 0;
#X connect 14 0 16 0;
#X connect 15 0 2 0;
#X connect 15 1 1 0;
#X connect 15 2 8 0;
#X connect 15 3 11 0;
#X connect 15 4 10 0;
#X connect 16 0 9 0;
#X connect 17 0 15 0;
#X restore 610 220 pd change;
#X obj 18 311 utils/clean-output;
#X obj 177 304 utils/clean-output;
#N canvas 728 80 1064 960 synth 0;
#X obj 26 14 inlet;
#X obj 29 846 outlet~;
#X obj 311 -5 inlet;
#X obj 146 307 t f f;
#X obj 30 713 *~ 0;
#X obj 30 468 mtof;
#N canvas 3 63 450 300 attack 0;
#X obj 22 38 inlet;
#X obj 102 39 inlet;
#X obj 22 160 outlet;
#X obj 102 61 / 4;
#X obj 22 122 utils/rand;
#X connect 0 0 4 0;
#X connect 1 0 3 0;
#X connect 3 0 4 1;
#X connect 4 0 2 0;
#X restore 72 225 pd attack;
#N canvas 3 73 450 300 sustain 0;
#X obj 22 38 inlet;
#X obj 22 160 outlet;
#X obj 22 89 / 1000;
#X obj 22 111 moses 0.5;
#X msg 22 133 0.5;
#X obj 22 67 utils/rand 1000;
#X connect 0 0 5 0;
#X connect 2 0 3 0;
#X connect 3 0 4 0;
#X connect 3 1 1 0;
#X connect 4 0 1 0;
#X connect 5 0 2 0;
#X restore 209 215 pd sustain;
#N canvas 3 63 450 300 decay 0;
#X obj 22 38 inlet;
#X obj 102 39 inlet;
#X obj 22 160 outlet;
#X obj 102 61 / 4;
#X obj 22 122 utils/rand;
#X connect 0 0 4 0;
#X connect 1 0 3 0;
#X connect 3 0 4 1;
#X connect 4 0 2 0;
#X restore 165 239 pd decay;
#N canvas 3 78 391 322 release 0;
#X obj 22 38 inlet;
#X obj 102 39 inlet;
#X obj 22 230 outlet;
#X obj 102 61 t f f;
#X obj 22 204 +;
#X obj 102 83 * 2;
#X obj 136 85 / 2;
#X obj 22 122 utils/rand;
#X connect 0 0 7 0;
#X connect 1 0 3 0;
#X connect 3 0 5 0;
#X connect 3 1 6 0;
#X connect 4 0 2 0;
#X connect 5 0 7 1;
#X connect 6 0 4 1;
#X connect 7 0 4 0;
#X restore 303 213 pd release;
#N canvas 3 63 450 300 length 0;
#X obj 38 41 inlet;
#X obj 208 41 inlet;
#X obj 208 63 * 8;
#X obj 38 155 +;
#X obj 38 177 outlet;
#X obj 38 133 utils/rand;
#X connect 0 0 5 0;
#X connect 1 0 2 0;
#X connect 1 0 3 1;
#X connect 2 0 5 1;
#X connect 3 0 4 0;
#X connect 5 0 3 0;
#X restore 413 208 pd length;
#X obj 406 246 del;
#X obj 28 159 t b f b b b b b b;
#X msg 406 268 0;
#X obj 311 24 t f f f f;
#X obj 108 844 outlet~;
#X obj 146 285 utils/adsr;
#X obj 82 739 *~ 0;
#X obj 519 281 r playing;
#X msg 519 406 \$1 1000;
#X obj 30 652 phasor~;
#X obj 519 303 bits/is-bit-set 3;
#X obj 519 429 line;
#X obj 29 680 vcf~ 4;
#X obj 104 510 * 3;
#X obj 45 588 line~;
#X obj 44 539 pack f f f;
#X obj 44 499 t f f;
#X msg 44 561 \$2 \, \$1 \$3;
#X obj 693 565 r synth-mel;
#X obj 598 343 sel 1 0;
#X msg 652 362 stop;
#X obj 551 612 utils/markov-melody;
#X msg 674 448 clear \, add 0 synth-mel 48 1 0 1 2 2 \, add 0 synth-mel
52 2 1 1 3 0 \, add 0 synth-mel 54 0 3 \, add 0 synth-mel 56 1 0 2
2 0;
#X msg 598 365 start;
#X obj 674 418 loadbang;
#X obj 28 130 + 5;
#X obj 28 109 utils/rand 20;
#X obj 19 222 / 50;
#X connect 2 0 14 0;
#X connect 3 0 4 1;
#X connect 4 0 17 0;
#X connect 5 0 20 0;
#X connect 5 0 27 0;
#X connect 6 0 16 1;
#X connect 7 0 16 3;
#X connect 8 0 16 2;
#X connect 9 0 16 4;
#X connect 10 0 11 1;
#X connect 10 0 26 2;
#X connect 10 0 32 3;
#X connect 11 0 13 0;
#X connect 12 1 38 0;
#X connect 12 2 6 0;
#X connect 12 3 7 0;
#X connect 12 4 8 0;
#X connect 12 5 9 0;
#X connect 12 6 11 0;
#X connect 12 7 10 0;
#X connect 13 0 16 0;
#X connect 14 0 6 1;
#X connect 14 1 8 1;
#X connect 14 2 9 1;
#X connect 14 3 10 1;
#X connect 16 0 3 0;
#X connect 17 0 1 0;
#X connect 17 0 15 0;
#X connect 18 0 21 0;
#X connect 19 0 22 0;
#X connect 20 0 23 0;
#X connect 21 0 19 0;
#X connect 21 0 30 0;
#X connect 22 0 17 1;
#X connect 23 0 4 0;
#X connect 23 1 4 0;
#X connect 24 0 26 1;
#X connect 25 0 23 1;
#X connect 26 0 28 0;
#X connect 27 0 26 0;
#X connect 27 1 24 0;
#X connect 28 0 25 0;
#X connect 29 0 32 2;
#X connect 30 0 34 0;
#X connect 30 1 31 0;
#X connect 31 0 32 1;
#X connect 32 0 5 0;
#X connect 32 1 37 0;
#X connect 33 0 32 0;
#X connect 34 0 32 1;
#X connect 35 0 33 0;
#X connect 36 0 12 0;
#X connect 37 0 36 0;
#X connect 38 0 16 0;
#X restore 218 180 pd synth;
#N canvas 232 51 895 708 break 0;
#X obj 172 38 inlet;
#X obj 827 66 inlet;
#X obj 335 462 outlet~;
#X obj 437 464 outlet~;
#X obj 416 73 r break-sample-new;
#X obj 416 117 sel 0 1;
#X obj 657 412 f;
#X obj 657 384 t f b;
#X obj 827 88 t b f;
#X obj 694 410 f;
#X obj 657 434 /;
#X obj 657 456 t f f;
#X obj 689 484 int;
#X obj 657 578 /;
#X obj 91 40 r playing;
#X obj 91 84 sel 0 1;
#X msg 91 106 stop;
#X msg 113 145 start;
#X obj 75 209 r break-pitch-new;
#X obj 75 301 log;
#X obj 75 279 + 2;
#X msg 75 326 list break-pitch \$1;
#X obj 75 380 s state;
#X obj 300 155 r break-pitch;
#X obj 91 62 bits/is-bit-set 4;
#X obj 380 368 *~ 0.4;
#X msg 167 262 list break-sample \$1;
#X obj 284 68 r break-sample;
#X msg 416 139 set loop_1;
#X msg 447 166 set loop_2;
#X obj 414 32 loadbang;
#X obj 380 233 looper/breakbeat~;
#X msg 268 295 \$1 10000;
#X obj 268 317 line;
#X obj 75 253 / 200;
#X obj 689 506 t b f;
#X obj 689 528 utils/rand;
#X obj 689 550 + 1;
#X obj 619 130 r break-speed;
#X msg 657 706 list break-speed \$1;
#X obj 657 600 + 0.5;
#X obj 657 622 moses 2;
#X obj 746 649 - 2;
#X obj 657 644 moses 0.5;
#X obj 416 95 utils/rand 2;
#X obj 75 231 utils/rand 1000;
#X connect 1 0 8 0;
#X connect 4 0 44 0;
#X connect 5 0 28 0;
#X connect 5 1 29 0;
#X connect 6 0 10 0;
#X connect 7 0 6 0;
#X connect 7 1 9 0;
#X connect 8 0 6 0;
#X connect 8 1 9 0;
#X connect 9 0 10 1;
#X connect 10 0 11 0;
#X connect 11 0 13 0;
#X connect 11 1 12 0;
#X connect 12 0 35 0;
#X connect 13 0 40 0;
#X connect 14 0 24 0;
#X connect 15 0 16 0;
#X connect 15 1 17 0;
#X connect 16 0 31 0;
#X connect 17 0 31 0;
#X connect 18 0 45 0;
#X connect 19 0 21 0;
#X connect 19 0 32 0;
#X connect 20 0 19 0;
#X connect 21 0 22 0;
#X connect 23 0 31 2;
#X connect 24 0 15 0;
#X connect 25 0 2 0;
#X connect 25 0 3 0;
#X connect 26 0 22 0;
#X connect 27 0 5 0;
#X connect 28 0 31 0;
#X connect 29 0 31 0;
#X connect 30 0 28 0;
#X connect 31 0 25 0;
#X connect 31 2 7 0;
#X connect 32 0 33 0;
#X connect 33 0 31 2;
#X connect 34 0 20 0;
#X connect 35 0 36 0;
#X connect 35 1 36 1;
#X connect 36 0 37 0;
#X connect 37 0 13 1;
#X connect 38 0 31 1;
#X connect 39 0 22 0;
#X connect 40 0 41 0;
#X connect 41 0 43 0;
#X connect 41 1 42 0;
#X connect 42 0 41 0;
#X connect 43 0 40 0;
#X connect 43 1 39 0;
#X connect 43 1 31 1;
#X connect 44 0 5 0;
#X connect 44 0 26 0;
#X connect 45 0 34 0;
#X restore 292 180 pd break;
#N canvas 981 440 783 524 samples 0;
#X obj 599 32 table loop_1;
#X obj 599 13 table loop_2;
#X msg 48 111 read -resize samples/voice_1.wav loop_1;
#X obj 48 133 soundfiler;
#X obj 169 212 soundfiler;
#N canvas 44 78 443 256 write-hanning 0;
#X msg 142 80 0;
#X obj 36 129 osc~;
#X obj 36 152 *~ -0.5;
#X obj 36 175 +~ 0.5;
#X obj 36 105 / 256;
#X obj 28 200 tabwrite~ hanning;
#X obj 28 48 t b b b;
#X obj 28 26 inlet;
#X obj 36 81 48000;
#X connect 0 0 1 1;
#X connect 1 0 2 0;
#X connect 2 0 3 0;
#X connect 3 0 5 0;
#X connect 4 0 1 0;
#X connect 6 0 5 0;
#X connect 6 1 8 0;
#X connect 6 2 0 0;
#X connect 7 0 6 0;
#X connect 8 0 4 0;
#X restore 573 158 pd write-hanning;
#X obj 399 18 table hanning 256;
#X obj 67 7 loadbang;
#X msg 169 190 read -resize samples/birds_1.wav loop_2;
#X connect 2 0 3 0;
#X connect 7 0 2 0;
#X connect 7 0 8 0;
#X connect 7 0 5 0;
#X connect 8 0 4 0;
#X restore 661 97 pd samples;
#N canvas 44 140 831 627 tom 0;
#X obj 80 16 inlet;
#X obj 552 9 inlet;
#X obj 80 38 t b b;
#X obj 80 66 del;
#X obj 482 334 osc~ 500;
#X obj 85 323 line~;
#X obj 84 347 *~;
#X obj 85 552 outlet~;
#X obj 73 164 del;
#X obj 80 88 t b b b b;
#X obj 73 186 f;
#X obj 339 112 t f f;
#X obj 166 177 +;
#X obj 315 54 / 8;
#X obj 538 204 osc~ 0.1;
#X obj 538 248 +~ 500;
#X obj 491 110 t b f;
#X obj 491 154 /;
#X msg 491 132 1000;
#N canvas 44 81 451 487 do-play 0;
#X obj 62 29 inlet;
#X obj 100 464 outlet;
#X obj 141 87 f;
#X obj 183 87 + 1;
#X msg 272 29 0;
#X obj 62 54 t b b;
#X obj 73 373 moses 1;
#X msg 174 420 0;
#X obj 37 294 / 10;
#X msg 227 222 14;
#X msg 144 214 4;
#X msg 187 215 10;
#X obj 141 131 mod 9;
#X obj 141 109 moses 17;
#X msg 230 251 16;
#X msg 270 258 9;
#X obj 131 185 route 0 1 2 3 4 5 6 7 8;
#X msg 353 266 9;
#X msg 394 264 19;
#X obj 50 400 moses 0.3;
#X msg 110 424 0.3;
#X msg 104 207 12;
#X msg 313 259 18;
#X obj 28 183 utils/rand 10;
#X connect 0 0 5 0;
#X connect 2 0 3 0;
#X connect 2 0 13 0;
#X connect 3 0 2 1;
#X connect 4 0 2 1;
#X connect 5 0 23 0;
#X connect 5 1 2 0;
#X connect 6 0 19 0;
#X connect 6 1 7 0;
#X connect 7 0 1 0;
#X connect 8 0 6 0;
#X connect 9 0 8 1;
#X connect 10 0 8 1;
#X connect 11 0 8 1;
#X connect 12 0 16 0;
#X connect 13 0 12 0;
#X connect 13 1 4 0;
#X connect 14 0 8 1;
#X connect 15 0 8 1;
#X connect 16 0 21 0;
#X connect 16 1 10 0;
#X connect 16 2 11 0;
#X connect 16 3 9 0;
#X connect 16 4 14 0;
#X connect 16 5 15 0;
#X connect 16 6 22 0;
#X connect 16 7 17 0;
#X connect 16 8 18 0;
#X connect 17 0 8 1;
#X connect 18 0 8 1;
#X connect 19 0 1 0;
#X connect 19 1 20 0;
#X connect 20 0 1 0;
#X connect 21 0 8 1;
#X connect 22 0 8 1;
#X connect 23 0 8 0;
#X restore 126 206 pd do-play;
#X obj 85 253 pack f f;
#X msg 85 301 \$2 \, 0 \$1;
#X obj 491 88 * 19.1;
#X obj 538 226 *~ 100;
#X obj 339 90 / 3;
#X obj 84 369 *~ 0;
#X obj 293 177 r tom-on-off-new;
#X obj 377 221 r tom-on-off;
#X obj 299 349 s state;
#X msg 299 327 list tom-on-off \$1;
#X obj 161 555 outlet~;
#X obj 231 283 / 20;
#X obj 231 305 pack f f;
#X obj 231 327 line;
#X obj 227 386 r playing;
#X obj 227 408 bits/is-bit-set 1;
#X msg 227 430 \$1 1000;
#X obj 84 391 *~ 0;
#X obj 227 452 line;
#X obj 231 256 + 10;
#X obj 151 117 utils/rand;
#X obj 166 155 utils/rand;
#X obj 293 199 utils/rand 10;
#X obj 538 270 /~ 2;
#X obj 616 314 /~ 2;
#X obj 551 339 osc~ 250;
#X obj 624 341 osc~ 125;
#X obj 551 361 *~ 0.25;
#X obj 619 366 *~ 0.2;
#X obj 703 364 osc~ 125;
#X obj 686 309 /~ 4;
#X obj 698 389 *~ 0.2;
#X obj 482 356 *~ 0.75;
#X connect 0 0 2 0;
#X connect 1 0 3 1;
#X connect 1 0 13 0;
#X connect 1 0 22 0;
#X connect 1 0 24 0;
#X connect 1 0 33 2;
#X connect 2 0 3 0;
#X connect 2 1 9 0;
#X connect 3 0 9 0;
#X connect 4 0 52 0;
#X connect 5 0 6 0;
#X connect 6 0 25 0;
#X connect 8 0 10 0;
#X connect 9 0 8 0;
#X connect 9 1 19 0;
#X connect 9 2 41 0;
#X connect 9 3 40 0;
#X connect 10 0 20 0;
#X connect 11 0 41 1;
#X connect 11 1 12 1;
#X connect 12 0 10 1;
#X connect 13 0 40 1;
#X connect 14 0 23 0;
#X connect 15 0 4 0;
#X connect 15 0 43 0;
#X connect 16 0 18 0;
#X connect 16 1 17 1;
#X connect 17 0 14 0;
#X connect 18 0 17 0;
#X connect 19 0 20 1;
#X connect 20 0 21 0;
#X connect 21 0 5 0;
#X connect 22 0 16 0;
#X connect 23 0 15 0;
#X connect 24 0 11 0;
#X connect 25 0 37 0;
#X connect 26 0 42 0;
#X connect 27 0 31 0;
#X connect 29 0 28 0;
#X connect 31 0 32 0;
#X connect 32 0 33 0;
#X connect 33 0 25 1;
#X connect 34 0 35 0;
#X connect 35 0 36 0;
#X connect 36 0 38 0;
#X connect 37 0 7 0;
#X connect 37 0 30 0;
#X connect 38 0 37 1;
#X connect 39 0 31 0;
#X connect 40 0 8 1;
#X connect 41 0 12 0;
#X connect 42 0 29 0;
#X connect 42 0 39 0;
#X connect 43 0 44 0;
#X connect 43 0 45 0;
#X connect 43 0 50 0;
#X connect 44 0 46 0;
#X connect 45 0 47 0;
#X connect 46 0 48 0;
#X connect 47 0 6 1;
#X connect 48 0 6 1;
#X connect 49 0 51 0;
#X connect 50 0 49 0;
#X connect 51 0 6 1;
#X connect 52 0 6 1;
#X restore 102 180 pd tom;
#X obj 177 358 s analysed-r;
#X obj 40 364 s analysed-l;
#X obj 40 340 utils/analysis;
#X obj 177 336 utils/analysis;
#X connect 1 0 3 0;
#X connect 2 0 9 0;
#X connect 2 1 10 0;
#X connect 3 0 2 0;
#X connect 3 0 14 0;
#X connect 3 0 8 0;
#X connect 3 0 11 0;
#X connect 3 0 7 0;
#X connect 4 0 5 0;
#X connect 5 0 3 1;
#X connect 5 0 6 0;
#X connect 5 0 12 1;
#X connect 5 0 12 0;
#X connect 6 0 14 1;
#X connect 6 0 11 1;
#X connect 6 0 7 1;
#X connect 7 0 9 0;
#X connect 7 1 10 0;
#X connect 9 0 0 0;
#X connect 9 0 17 0;
#X connect 10 0 0 1;
#X connect 10 0 18 0;
#X connect 11 0 9 0;
#X connect 11 1 10 0;
#X connect 12 0 9 0;
#X connect 12 1 10 0;
#X connect 14 0 9 0;
#X connect 14 1 10 0;
#X connect 17 0 16 0;
#X connect 18 0 15 0;
