#N canvas 677 105 450 517 10;
#X obj 63 142 qlist;
#X obj 188 186 r rec;
#X obj 188 277 list split 1;
#X obj 175 422 list split;
#X obj 276 340 list length;
#X obj 227 308 t a b a;
#X obj 242 382 utils/rand;
#X obj 205 464 list split 1;
#X obj 273 49 t b f b;
#X msg 261 71 next;
#X obj 287 104 until;
#X msg 287 126 next 1;
#X msg 340 72 rewind;
#X obj 305 79 + 1;
#X obj 188 208 t b a;
#X obj 80 247 del 500;
#X obj 80 269 f;
#X msg 261 27 0;
#X obj 42 343 mtof;
#X obj 42 365 osc~;
#X obj 42 387 *~ 0.2;
#X obj 42 409 dac~ 1 2;
#X msg 35 45 clear \, add 0 rec 32 1 0 1 2 2 \, add 0 rec 34 2 1 1
3 0 \, add 0 rec 38 0 3 \, add 0 rec 44 1 0 2 2 0;
#X connect 1 0 14 0;
#X connect 2 0 18 0;
#X connect 2 1 5 0;
#X connect 3 1 7 0;
#X connect 4 0 6 1;
#X connect 5 0 3 0;
#X connect 5 1 6 0;
#X connect 5 2 4 0;
#X connect 6 0 3 1;
#X connect 7 0 16 1;
#X connect 8 0 9 0;
#X connect 8 1 13 0;
#X connect 8 2 12 0;
#X connect 9 0 0 0;
#X connect 10 0 11 0;
#X connect 11 0 0 0;
#X connect 12 0 0 0;
#X connect 13 0 10 0;
#X connect 14 0 15 0;
#X connect 14 1 2 0;
#X connect 15 0 16 0;
#X connect 16 0 8 0;
#X connect 17 0 8 0;
#X connect 18 0 19 0;
#X connect 19 0 20 0;
#X connect 20 0 21 0;
#X connect 20 0 21 1;
#X connect 22 0 0 0;
