#N canvas 164 356 873 597 10;
#X obj 670 111 tgl 15 0 \$0-play \$0-play-r Play 17 7 0 10 -204800
-4160 -1 1 1;
#X obj 121 347 +~ 0;
#X obj 119 270 phasor~ 0;
#X obj 119 184 unpack f f;
#X obj 120 308 *~ 1;
#X obj 121 401 *~ 0;
#X obj 11 -28 inlet;
#X obj 121 428 outlet~;
#X obj 266 426 outlet;
#X obj 216 55 \$2;
#N canvas 475 141 635 645 playback-params 0;
#X obj 322 26 inlet;
#X obj 68 38 inlet;
#X obj 61 481 outlet;
#X obj 122 480 outlet;
#X obj 238 485 outlet;
#X obj 349 105 / 8;
#X obj 208 151 48000;
#X msg 123 318 0;
#X obj 208 232 /;
#X obj 193 258 f;
#X obj 61 330 /;
#X obj 238 324 *;
#X obj 68 68 t b f f b;
#X obj 322 67 t b f;
#X obj 407 483 outlet;
#X obj -9 32 inlet;
#X obj 411 328 *;
#X obj 441 28 inlet;
#X obj 27 404 f;
#X obj 35 433 * 1;
#X obj 441 107 t b f;
#X obj 441 82 line;
#X msg 441 54 \$1 100;
#X connect 0 0 13 0;
#X connect 1 0 12 0;
#X connect 5 0 8 1;
#X connect 5 0 11 1;
#X connect 5 0 16 1;
#X connect 6 0 8 0;
#X connect 7 0 3 0;
#X connect 8 0 9 1;
#X connect 9 0 10 0;
#X connect 10 0 18 0;
#X connect 11 0 4 0;
#X connect 12 0 9 0;
#X connect 12 1 10 1;
#X connect 12 2 11 0;
#X connect 12 3 7 0;
#X connect 13 0 6 0;
#X connect 13 1 5 0;
#X connect 15 0 16 0;
#X connect 16 0 14 0;
#X connect 17 0 22 0;
#X connect 18 0 19 0;
#X connect 19 0 2 0;
#X connect 20 0 18 0;
#X connect 20 1 19 1;
#X connect 21 0 20 0;
#X connect 22 0 21 0;
#X restore 119 213 pd playback-params;
#X obj 710 0 table \$0-hanning 256;
#N canvas 44 51 443 256 write-hanning 0;
#X msg 142 80 0;
#X obj 36 129 osc~;
#X obj 36 81 48000;
#X obj 36 152 *~ -0.5;
#X obj 36 175 +~ 0.5;
#X obj 28 58 bng 15 250 50 0 empty empty empty 0 -6 0 8 -262144 -1
-1;
#X obj 28 26 loadbang;
#X obj 36 105 / 256;
#X obj 28 200 tabwrite~ \$0-hanning;
#X connect 0 0 1 1;
#X connect 1 0 3 0;
#X connect 2 0 7 0;
#X connect 3 0 4 0;
#X connect 4 0 8 0;
#X connect 5 0 2 0;
#X connect 5 0 0 0;
#X connect 5 0 8 0;
#X connect 6 0 5 0;
#X connect 7 0 1 0;
#X restore 709 23 pd write-hanning;
#N canvas 831 536 450 300 load-sample 0;
#X obj 34 35 inlet;
#X obj 33 248 outlet;
#X obj 91 247 outlet;
#X obj 133 128 symbol;
#X obj 33 217 array size;
#X obj 77 124 symbol;
#X obj 21 64 t a b a;
#X connect 0 0 6 0;
#X connect 3 0 2 0;
#X connect 4 0 1 0;
#X connect 5 0 4 1;
#X connect 6 0 3 0;
#X connect 6 1 4 0;
#X connect 6 2 5 0;
#X restore 201 164 pd load-sample;
#N canvas 44 83 893 657 read-table 0;
#X obj 128 137 / 256;
#X obj 128 110 * 44100;
#X obj 54 48 inlet~;
#X obj 128 46 inlet;
#X obj 220 501 outlet~;
#X obj 128 171 phasor~;
#X obj 55 250 samphold~;
#X obj 137 252 *~ 256;
#X obj 56 286 +~;
#X obj 56 352 *~;
#X obj 413 206 +~ 0.5;
#X obj 413 235 wrap~;
#X obj 341 265 samphold~;
#X obj 423 267 *~ 256;
#X obj 342 301 +~;
#X obj 343 367 *~;
#X obj 221 467 +~;
#X obj 189 42 loadbang;
#X obj 189 68 48000;
#X obj 128 88 line;
#X msg 128 67 \$1 100;
#X obj 423 291 tabread4~ hanning;
#X obj 138 278 tabread4~ hanning;
#X obj 57 321 tabread4~;
#X obj 343 327 tabread4~;
#X obj 425 53 inlet;
#X msg 425 75 set \$1;
#X connect 0 0 5 0;
#X connect 1 0 0 0;
#X connect 2 0 6 0;
#X connect 2 0 12 0;
#X connect 3 0 20 0;
#X connect 5 0 6 1;
#X connect 5 0 7 0;
#X connect 5 0 10 0;
#X connect 6 0 8 0;
#X connect 7 0 8 1;
#X connect 7 0 22 0;
#X connect 8 0 23 0;
#X connect 9 0 16 0;
#X connect 10 0 11 0;
#X connect 11 0 13 0;
#X connect 11 0 12 1;
#X connect 12 0 14 0;
#X connect 13 0 14 1;
#X connect 13 0 21 0;
#X connect 14 0 24 0;
#X connect 15 0 16 1;
#X connect 16 0 4 0;
#X connect 17 0 18 0;
#X connect 18 0 1 1;
#X connect 19 0 1 0;
#X connect 20 0 19 0;
#X connect 21 0 15 1;
#X connect 22 0 9 1;
#X connect 23 0 9 0;
#X connect 24 0 15 0;
#X connect 25 0 26 0;
#X connect 26 0 24 0;
#X connect 26 0 23 0;
#X restore 120 375 pd read-table;
#X obj 231 -1 loadbang;
#X msg 300 109 1;
#X obj 673 145 hsl 128 15 0.5 2 1 1 \$0-speed \$0-speed-r Speed -2
-8 0 10 -262144 -1 -1 0 1;
#X obj 216 80 sel 0;
#X obj 300 82 sel 0;
#X msg 216 102 1;
#X obj 300 56 \$3;
#X obj 11 26 t b b;
#X msg 11 60 1;
#X floatatom 718 112 5 0 0 0 - #0-startbeat -, f 5;
#X floatatom 762 112 5 0 0 0 - #0-len-in-beats -, f 5;
#X msg 63 65 0;
#X obj 672 176 hsl 128 15 0.5 2 1 1 \$0-pitch \$0-pitch-r Pitch -2
-8 0 10 -262144 -1 -1 12078 1;
#X obj 185 275 sel 0 1;
#X obj 183 343 line;
#X msg 185 314 0 200;
#X msg 229 314 1;
#X obj 301 -22 inlet;
#X obj 381 -19 inlet;
#X floatatom 813 145 5 0 0 0 - - -, f 5;
#X floatatom 811 176 5 0 0 0 - - -, f 5;
#N canvas 113 124 449 539 sample-position 0;
#X obj 38 16 inlet;
#X obj 38 432 pack f f;
#X obj 38 460 outlet;
#X obj 38 315 t f b;
#X msg 83 372 1;
#X obj 38 112 sel 0 1 2 3;
#X obj 102 316 t f b;
#X msg 129 373 2;
#X obj 168 315 t f b;
#X obj 232 316 t f b;
#X msg 195 373 3;
#X msg 259 373 4;
#X obj 38 53 t b;
#X obj 38 86 ../utils/rand 4;
#X obj 38 243 ../utils/rand 8;
#X obj 102 217 ../utils/rand 7;
#X obj 168 195 ../utils/rand 6;
#X obj 232 168 ../utils/rand 5;
#X connect 0 0 12 0;
#X connect 1 0 2 0;
#X connect 3 0 1 0;
#X connect 3 1 4 0;
#X connect 4 0 1 1;
#X connect 5 0 14 0;
#X connect 5 1 15 0;
#X connect 5 2 16 0;
#X connect 5 3 17 0;
#X connect 6 0 1 0;
#X connect 6 1 7 0;
#X connect 7 0 1 1;
#X connect 8 0 1 0;
#X connect 8 1 10 0;
#X connect 9 0 1 0;
#X connect 9 1 11 0;
#X connect 10 0 1 1;
#X connect 11 0 1 1;
#X connect 12 0 13 0;
#X connect 13 0 5 0;
#X connect 14 0 3 0;
#X connect 15 0 6 0;
#X connect 16 0 8 0;
#X connect 17 0 9 0;
#X restore 118 139 pd sample-position;
#X obj 11 105 s \$0-play-r;
#X obj 357 218 r \$0-play;
#X obj 25 242 s \$0-startbeat;
#X obj 11 284 s \$0-len-in-beats;
#X obj 360 166 r \$0-speed;
#X obj 243 135 s \$0-speed-r;
#X obj 327 140 s \$0-pitch-r;
#X obj 471 215 r \$0-pitch;
#X obj 462 -18 inlet;
#X obj 11 -1 route start stop set;
#X obj 343 425 outlet;
#X obj 530 305 fexpr~ $x[0] < $x[-1];
#X obj 530 345 threshold~ 0.5 1 0.1 1;
#X obj 530 371 spigot;
#X obj 343 381 / 48;
#X connect 1 0 14 0;
#X connect 2 0 4 0;
#X connect 2 0 48 0;
#X connect 3 0 10 0;
#X connect 3 0 39 0;
#X connect 3 1 10 1;
#X connect 3 1 40 0;
#X connect 4 0 1 0;
#X connect 5 0 7 0;
#X connect 6 0 46 0;
#X connect 9 0 18 0;
#X connect 10 0 2 0;
#X connect 10 1 2 1;
#X connect 10 2 4 1;
#X connect 10 3 1 1;
#X connect 13 0 10 2;
#X connect 13 0 51 0;
#X connect 13 1 14 2;
#X connect 14 0 5 0;
#X connect 15 0 9 0;
#X connect 15 0 21 0;
#X connect 16 0 43 0;
#X connect 17 0 34 0;
#X connect 18 0 20 0;
#X connect 18 1 42 0;
#X connect 19 0 16 0;
#X connect 19 1 43 0;
#X connect 20 0 42 0;
#X connect 21 0 19 0;
#X connect 22 0 23 0;
#X connect 22 1 36 0;
#X connect 23 0 37 0;
#X connect 26 0 37 0;
#X connect 27 0 35 0;
#X connect 28 0 30 0;
#X connect 28 1 31 0;
#X connect 29 0 5 1;
#X connect 30 0 29 0;
#X connect 31 0 29 0;
#X connect 32 0 42 0;
#X connect 33 0 43 0;
#X connect 36 0 3 0;
#X connect 36 0 8 0;
#X connect 38 0 28 0;
#X connect 38 0 50 1;
#X connect 41 0 10 3;
#X connect 44 0 14 1;
#X connect 45 0 36 0;
#X connect 46 0 22 0;
#X connect 46 1 26 0;
#X connect 46 2 13 0;
#X connect 48 0 49 0;
#X connect 49 0 50 0;
#X connect 50 0 36 0;
#X connect 51 0 47 0;
#X coords 0 -1 1 1 200 130 1 660 70;
