#N canvas 379 106 648 508 10;
#X obj 243 20 inlet;
#X obj 309 434 outlet;
#X obj 251 114 moses;
#X obj 327 369 f;
#X msg 360 182 0;
#X obj 359 371 + 1;
#X obj 309 411 f;
#X obj 309 180 t b b;
#X obj 125 193 f;
#X obj 159 193 + 1;
#X obj 165 287 is-bit-set;
#X msg 125 159 0;
#X obj 243 42 t b f f b;
#X msg 251 136 bang;
#X obj 165 263 f;
#X obj 165 309 sel 1;
#X obj 125 215 t b f b f;
#X obj 29 50 <<;
#X msg 125 237 1;
#X connect 0 0 12 0;
#X connect 2 0 13 0;
#X connect 2 1 7 0;
#X connect 3 0 5 0;
#X connect 3 0 6 1;
#X connect 4 0 3 1;
#X connect 5 0 3 1;
#X connect 6 0 1 0;
#X connect 7 0 6 0;
#X connect 7 1 3 0;
#X connect 8 0 9 0;
#X connect 8 0 16 0;
#X connect 9 0 8 1;
#X connect 10 0 15 0;
#X connect 11 0 8 0;
#X connect 12 0 11 0;
#X connect 12 1 14 1;
#X connect 12 2 2 1;
#X connect 12 3 4 0;
#X connect 13 0 8 0;
#X connect 14 0 10 0;
#X connect 15 0 3 0;
#X connect 16 0 18 0;
#X connect 16 1 17 1;
#X connect 16 2 14 0;
#X connect 16 3 10 1;
#X connect 17 0 2 0;
#X connect 18 0 17 0;
