#N canvas 1025 233 433 539 10;
#X obj 73 20 inlet;
#X obj 73 310 outlet;
#N canvas 1050 323 450 300 set-bit-one 0;
#X obj 14 9 inlet;
#X obj 86 11 inlet;
#X obj 14 183 outlet;
#X obj 86 42 t b f;
#X msg 86 64 1;
#X obj 86 86 <<;
#X obj 14 151 |;
#X connect 0 0 6 0;
#X connect 1 0 3 0;
#X connect 3 0 4 0;
#X connect 3 1 5 1;
#X connect 4 0 5 0;
#X connect 5 0 6 1;
#X connect 6 0 2 0;
#X restore 186 272 pd set-bit-one;
#N canvas 1050 323 450 300 set-bit-zero 0;
#X obj 14 9 inlet;
#X obj 86 11 inlet;
#X obj 14 223 outlet;
#X msg 86 55 1;
#X obj 86 77 <<;
#X obj 86 33 t b f;
#X obj 14 31 t f f;
#X obj 14 171 -;
#X obj 46 113 &;
#X text 174 81 a xor b = a + b - 2(a & b);
#X connect 0 0 6 0;
#X connect 1 0 5 0;
#X connect 3 0 4 0;
#X connect 4 0 8 1;
#X connect 5 0 3 0;
#X connect 5 1 4 1;
#X connect 6 0 7 0;
#X connect 6 1 8 0;
#X connect 7 0 2 0;
#X connect 8 0 7 1;
#X restore 73 272 pd set-bit-zero;
#X obj 73 42 unpack f f;
#X text 185 46 original - position;
#X obj 119 133 is-bit-set;
#X obj 73 176 spigot;
#X msg 224 203 1;
#X obj 224 182 sel 0 1;
#X msg 254 202 0;
#X obj 186 233 spigot;
#X obj 140 65 t f f f;
#X obj 73 64 t f f f;
#X connect 0 0 4 0;
#X connect 2 0 1 0;
#X connect 3 0 1 0;
#X connect 4 0 13 0;
#X connect 4 1 12 0;
#X connect 6 0 9 0;
#X connect 6 0 7 1;
#X connect 7 0 3 0;
#X connect 8 0 11 1;
#X connect 9 0 8 0;
#X connect 9 1 10 0;
#X connect 10 0 11 1;
#X connect 11 0 2 0;
#X connect 12 0 2 1;
#X connect 12 1 3 1;
#X connect 12 2 6 1;
#X connect 13 0 7 0;
#X connect 13 1 11 0;
#X connect 13 2 6 0;
