#N canvas 379 96 450 362 10;
#X obj 23 20 inlet;
#X obj 79 129 + 1;
#X obj 86 40 loadbang;
#X obj 86 62 \$1;
#X obj 23 321 outlet;
#X obj 116 19 inlet;
#X obj 116 84 t b f;
#X obj 79 154 <<;
#X obj 23 214 &;
#X msg 69 267 1;
#X obj 23 241 moses 1;
#X connect 0 0 8 0;
#X connect 1 0 7 0;
#X connect 2 0 3 0;
#X connect 3 0 6 0;
#X connect 5 0 6 0;
#X connect 6 0 1 0;
#X connect 6 1 7 1;
#X connect 7 0 8 1;
#X connect 8 0 10 0;
#X connect 9 0 4 0;
#X connect 10 0 4 0;
#X connect 10 1 9 0;
