#N canvas 379 96 433 312 10;
#X obj 73 20 inlet;
#X obj 18 260 outlet;
#X obj 73 42 unpack f f f;
#X text 186 46 original - position - value (0/1);
#N canvas 1050 323 450 300 set-bit-one 0;
#X obj 14 9 inlet;
#X obj 86 11 inlet;
#X obj 14 183 outlet;
#X obj 86 42 t b f;
#X msg 86 64 1;
#X obj 86 86 <<;
#X obj 14 151 |;
#X connect 0 0 6 0;
#X connect 1 0 3 0;
#X connect 3 0 4 0;
#X connect 3 1 5 1;
#X connect 4 0 5 0;
#X connect 5 0 6 1;
#X connect 6 0 2 0;
#X restore 18 211 pd set-bit-one;
#X obj 18 163 spigot;
#N canvas 1050 323 450 300 set-bit-zero 0;
#X obj 14 9 inlet;
#X obj 86 11 inlet;
#X obj 14 223 outlet;
#X msg 86 55 1;
#X obj 86 77 <<;
#X obj 86 33 t b f;
#X obj 14 31 t f f;
#X obj 14 171 -;
#X obj 46 113 &;
#X text 174 81 a xor b = a + b - 2(a & b);
#X connect 0 0 6 0;
#X connect 1 0 5 0;
#X connect 3 0 4 0;
#X connect 4 0 8 1;
#X connect 5 0 3 0;
#X connect 5 1 4 1;
#X connect 6 0 7 0;
#X connect 6 1 8 0;
#X connect 7 0 2 0;
#X connect 8 0 7 1;
#X restore 133 210 pd set-bit-zero;
#X msg 172 140 1;
#X obj 172 119 sel 0 1;
#X msg 202 139 0;
#X obj 133 168 spigot;
#X connect 0 0 2 0;
#X connect 2 0 10 0;
#X connect 2 0 5 0;
#X connect 2 1 4 1;
#X connect 2 1 6 1;
#X connect 2 2 5 1;
#X connect 2 2 8 0;
#X connect 4 0 1 0;
#X connect 5 0 4 0;
#X connect 6 0 1 0;
#X connect 7 0 10 1;
#X connect 8 0 7 0;
#X connect 8 1 9 0;
#X connect 9 0 10 1;
#X connect 10 0 6 0;
